<svg width="228" height="49" viewBox="0 0 228 49" fill="none" xmlns="http://www.w3.org/2000/svg">
<path d="M62.76 39.232C63.704 39.504 64.472 39.592 65.064 39.496C65.672 39.384 66.208 38.984 66.672 38.296L67.488 37.096L67.896 36.64L73.128 26.2H77.76L70.8 39.184C70.112 40.464 69.288 41.456 68.328 42.16C67.384 42.864 66.344 43.264 65.208 43.36C64.072 43.456 62.88 43.248 61.632 42.736L62.76 39.232ZM67.824 40.456L60.144 26.2H65.16L70.416 37.096L67.824 40.456ZM90.0677 40.936V29.968H85.2437L85.1717 31.792C85.1397 32.768 85.0757 33.68 84.9797 34.528C84.8997 35.376 84.7797 36.152 84.6197 36.856C84.4757 37.56 84.2757 38.168 84.0197 38.68C83.7797 39.176 83.4837 39.56 83.1317 39.832L78.0677 39.232C78.6277 39.248 79.0837 39.064 79.4357 38.68C79.8037 38.28 80.0917 37.728 80.2997 37.024C80.5237 36.32 80.6837 35.488 80.7797 34.528C80.8917 33.568 80.9717 32.52 81.0197 31.384L81.2117 26.2H94.7477V40.936H90.0677ZM77.5637 46.384V39.232H97.0277V46.384H92.6837V43H81.9317V46.384H77.5637ZM99.3 43V26.2H103.212L110.148 37.624H108.084L114.876 26.2H118.788L118.836 43H114.444L114.42 32.848H115.164L110.1 41.344H107.988L102.78 32.848H103.668V43H99.3ZM123.369 39.232C124.313 39.504 125.081 39.592 125.673 39.496C126.281 39.384 126.817 38.984 127.281 38.296L128.097 37.096L128.505 36.64L133.737 26.2H138.369L131.409 39.184C130.721 40.464 129.897 41.456 128.937 42.16C127.993 42.864 126.953 43.264 125.817 43.36C124.681 43.456 123.489 43.248 122.241 42.736L123.369 39.232ZM128.433 40.456L120.753 26.2H125.769L131.025 37.096L128.433 40.456ZM139.894 43V26.2H147.574C149.11 26.2 150.43 26.448 151.534 26.944C152.654 27.44 153.518 28.16 154.126 29.104C154.734 30.032 155.038 31.136 155.038 32.416C155.038 33.68 154.734 34.776 154.126 35.704C153.518 36.632 152.654 37.352 151.534 37.864C150.43 38.36 149.11 38.608 147.574 38.608H142.534L144.646 36.544V43H139.894ZM144.646 37.048L142.534 34.864H147.286C148.278 34.864 149.014 34.648 149.494 34.216C149.99 33.784 150.238 33.184 150.238 32.416C150.238 31.632 149.99 31.024 149.494 30.592C149.014 30.16 148.278 29.944 147.286 29.944H142.534L144.646 27.76V37.048ZM160.489 43V28.912L161.545 29.968H155.329V26.2H170.305V29.968H164.113L165.169 28.912V43H160.489ZM172.495 43V26.2H177.175V36.064L184.111 26.2H188.575V43H183.895V33.16L176.983 43H172.495ZM192.183 43V26.2H196.863V32.488H201.207V36.472H196.863V43H192.183ZM207.519 43.336C206.207 43.336 204.999 43.12 203.895 42.688C202.791 42.256 201.823 41.648 200.991 40.864C200.175 40.08 199.543 39.16 199.095 38.104C198.647 37.032 198.423 35.864 198.423 34.6C198.423 33.336 198.647 32.176 199.095 31.12C199.543 30.048 200.175 29.12 200.991 28.336C201.823 27.552 202.791 26.944 203.895 26.512C204.999 26.08 206.207 25.864 207.519 25.864C208.815 25.864 210.015 26.08 211.119 26.512C212.239 26.944 213.199 27.552 213.999 28.336C214.815 29.12 215.447 30.048 215.895 31.12C216.343 32.176 216.567 33.336 216.567 34.6C216.567 35.864 216.343 37.032 215.895 38.104C215.447 39.16 214.815 40.08 213.999 40.864C213.199 41.648 212.239 42.256 211.119 42.688C210.015 43.12 208.815 43.336 207.519 43.336ZM207.495 39.4C208.103 39.4 208.663 39.288 209.175 39.064C209.687 38.84 210.135 38.52 210.519 38.104C210.919 37.688 211.223 37.184 211.431 36.592C211.655 36 211.767 35.336 211.767 34.6C211.767 33.864 211.655 33.2 211.431 32.608C211.223 32.016 210.919 31.512 210.519 31.096C210.135 30.68 209.687 30.36 209.175 30.136C208.663 29.912 208.111 29.8 207.519 29.8C206.911 29.8 206.351 29.912 205.839 30.136C205.327 30.36 204.871 30.68 204.471 31.096C204.087 31.512 203.783 32.016 203.559 32.608C203.351 33.2 203.247 33.864 203.247 34.6C203.247 35.336 203.351 36 203.559 36.592C203.783 37.184 204.087 37.688 204.471 38.104C204.871 38.52 205.327 38.84 205.839 39.064C206.351 39.288 206.903 39.4 207.495 39.4Z" fill="black"/>
<path d="M66.704 16.224C65.808 16.224 64.9813 16.08 64.224 15.792C63.4667 15.504 62.8053 15.0987 62.24 14.576C61.6853 14.0427 61.2533 13.424 60.944 12.72C60.6347 12.016 60.48 11.2427 60.48 10.4C60.48 9.55733 60.6347 8.784 60.944 8.08C61.2533 7.376 61.6853 6.76267 62.24 6.24C62.8053 5.70667 63.4667 5.296 64.224 5.008C64.9813 4.72 65.808 4.576 66.704 4.576C67.6107 4.576 68.4373 4.72 69.184 5.008C69.9413 5.296 70.5973 5.70667 71.152 6.24C71.7067 6.76267 72.1387 7.376 72.448 8.08C72.768 8.784 72.928 9.55733 72.928 10.4C72.928 11.2427 72.768 12.0213 72.448 12.736C72.1387 13.44 71.7067 14.0533 71.152 14.576C70.5973 15.0987 69.9413 15.504 69.184 15.792C68.4373 16.08 67.6107 16.224 66.704 16.224ZM66.704 13.6C67.1307 13.6 67.5253 13.5253 67.888 13.376C68.2613 13.2267 68.5813 13.0133 68.848 12.736C69.1253 12.448 69.3387 12.1067 69.488 11.712C69.648 11.3173 69.728 10.88 69.728 10.4C69.728 9.90933 69.648 9.472 69.488 9.088C69.3387 8.69333 69.1253 8.35733 68.848 8.08C68.5813 7.792 68.2613 7.57333 67.888 7.424C67.5253 7.27467 67.1307 7.2 66.704 7.2C66.2773 7.2 65.8773 7.27467 65.504 7.424C65.1413 7.57333 64.8213 7.792 64.544 8.08C64.2773 8.35733 64.064 8.69333 63.904 9.088C63.7547 9.472 63.68 9.90933 63.68 10.4C63.68 10.88 63.7547 11.3173 63.904 11.712C64.064 12.1067 64.2773 12.448 64.544 12.736C64.8213 13.0133 65.1413 13.2267 65.504 13.376C65.8773 13.5253 66.2773 13.6 66.704 13.6ZM76.9456 16V6.608L77.6496 7.312H73.5056V4.8H83.4896V7.312H79.3616L80.0656 6.608V16H76.9456ZM92.022 16L88.87 10.672L91.414 9.168L95.59 16H92.022ZM84.886 16V4.8H88.038V16H84.886ZM87.126 11.712V9.152H91.19V11.712H87.126ZM91.718 10.736L88.79 10.416L92.23 4.8H95.558L91.718 10.736ZM96.6063 16V4.8H101.726C102.75 4.8 103.63 4.96533 104.366 5.296C105.113 5.62667 105.689 6.10667 106.094 6.736C106.5 7.35467 106.702 8.09067 106.702 8.944C106.702 9.78667 106.5 10.5173 106.094 11.136C105.689 11.7547 105.113 12.2347 104.366 12.576C103.63 12.9067 102.75 13.072 101.726 13.072H98.3663L99.7743 11.696V16H96.6063ZM99.7743 12.032L98.3663 10.576H101.534C102.196 10.576 102.686 10.432 103.006 10.144C103.337 9.856 103.502 9.456 103.502 8.944C103.502 8.42133 103.337 8.016 103.006 7.728C102.686 7.44 102.196 7.296 101.534 7.296H98.3663L99.7743 5.84V12.032ZM113.85 8.368C115.215 8.368 116.271 8.672 117.018 9.28C117.775 9.888 118.154 10.8 118.154 12.016C118.154 13.328 117.732 14.32 116.89 14.992C116.047 15.664 114.895 16 113.434 16H108.138V4.8H111.258V8.368H113.85ZM113.226 13.728C113.759 13.728 114.18 13.584 114.49 13.296C114.81 13.008 114.97 12.6027 114.97 12.08C114.97 11.5467 114.81 11.1733 114.49 10.96C114.18 10.736 113.759 10.624 113.226 10.624H111.258V13.728H113.226ZM119.386 16V4.8H122.506V16H119.386ZM124.919 16V4.8H130.359C131.703 4.8 132.743 5.056 133.479 5.568C134.225 6.06933 134.599 6.784 134.599 7.712C134.599 8.61867 134.252 9.33333 133.559 9.856C132.865 10.368 131.937 10.624 130.775 10.624L131.095 9.872C132.353 9.872 133.335 10.1227 134.039 10.624C134.753 11.1147 135.111 11.84 135.111 12.8C135.111 13.7813 134.727 14.56 133.959 15.136C133.201 15.712 132.103 16 130.663 16H124.919ZM128.039 13.728H130.535C130.993 13.728 131.335 13.632 131.559 13.44C131.793 13.2373 131.911 12.944 131.911 12.56C131.911 12.176 131.793 11.8933 131.559 11.712C131.335 11.52 130.993 11.424 130.535 11.424H128.039V13.728ZM128.039 9.28H130.055C130.503 9.28 130.839 9.18933 131.063 9.008C131.287 8.816 131.399 8.53867 131.399 8.176C131.399 7.81333 131.287 7.54133 131.063 7.36C130.839 7.168 130.503 7.072 130.055 7.072H128.039V9.28ZM135.705 16L140.649 4.8H143.769L148.729 16H145.433L141.561 6.352H142.809L138.937 16H135.705ZM138.409 13.824L139.225 11.488H144.697L145.513 13.824H138.409ZM155.659 16V12.528L156.411 13.184H153.579C152.576 13.184 151.712 13.0187 150.987 12.688C150.262 12.3573 149.702 11.8827 149.307 11.264C148.923 10.6453 148.731 9.90933 148.731 9.056C148.731 8.17067 148.934 7.41333 149.339 6.784C149.755 6.144 150.336 5.65333 151.083 5.312C151.84 4.97067 152.726 4.8 153.739 4.8H158.779V16H155.659ZM148.763 16L151.563 11.952H154.747L152.091 16H148.763ZM155.659 11.52V6.512L156.411 7.296H153.803C153.184 7.296 152.715 7.44 152.395 7.728C152.086 8.00533 151.931 8.432 151.931 9.008C151.931 9.57333 152.086 10.0053 152.395 10.304C152.715 10.592 153.174 10.736 153.771 10.736H156.411L155.659 11.52Z" fill="white"/>
<path d="M17.7522 8.20216V16.3967L21.2612 19.9196C23.1863 21.8522 24.7854 23.4348 24.8082 23.4348C24.9294 23.4348 31.7732 16.5261 31.8414 16.3435C31.9627 16.0163 31.9475 -1.94758e-05 31.8263 -1.94758e-05C31.7808 -1.94758e-05 30.1968 1.53694 28.3248 3.4239C26.4528 5.30325 24.8612 6.84781 24.8006 6.84781C24.74 6.84781 23.1484 5.30325 21.2764 3.4239C19.4044 1.53694 17.8431 -1.94758e-05 17.8128 -1.94758e-05C17.7749 -1.94758e-05 17.7522 3.6902 17.7522 8.20216Z" fill="#FF0000"/>
<path d="M0.244781 17.4467C0.244781 17.4619 1.78331 19.0065 3.66288 20.8859C5.54246 22.7728 7.1113 24.3706 7.15678 24.4543C7.22499 24.5761 6.79299 25.0402 3.72352 28.1217C1.79089 30.062 0.259939 31.6522 0.320571 31.6598C0.381202 31.6598 4.10246 31.6598 8.58162 31.6522L16.729 31.6446L20.238 28.1141L23.7547 24.5761L23.5273 24.2946C23.3985 24.1348 21.8145 22.5217 20.0107 20.7109L16.7214 17.4239H8.48309C3.95088 17.4239 0.244781 17.4315 0.244781 17.4467Z" fill="#FF0000"/>
<path d="M29.4465 20.9239C27.5366 22.8565 25.9753 24.4772 25.9753 24.538C25.9753 24.6902 32.8343 31.5761 33.0237 31.6141C33.2738 31.6674 48.3711 31.7131 48.8865 31.6598L49.3639 31.6141L45.9079 28.1522C43.6191 25.8544 42.4595 24.637 42.4595 24.538C42.4595 24.4315 43.5964 23.2446 45.8625 20.9848C47.7345 19.113 49.2881 17.5456 49.3185 17.5C49.3488 17.4467 46.7947 17.4239 41.1408 17.4239H32.9252L29.4465 20.9239Z" fill="#FF0000"/>
<path d="M21.2536 29.1641L17.7522 32.6793V40.8435C17.7522 47.2652 17.7749 49 17.8431 49C17.8962 49 19.4574 47.4783 21.3143 45.6141C23.1711 43.75 24.74 42.2283 24.8006 42.2283C24.8612 42.2283 26.2936 43.6206 27.9837 45.3174C29.6738 47.0141 31.1442 48.4522 31.2578 48.513C31.4852 48.6348 31.7429 48.65 31.8035 48.5511C31.8338 48.5054 31.8793 33.9576 31.8566 32.8163C31.849 32.7098 30.7501 31.5532 28.3627 29.1489C26.4452 27.2163 24.8461 25.6413 24.8157 25.6413C24.7854 25.6413 23.1863 27.2239 21.2536 29.1641Z" fill="#FF0000"/>
</svg>
